<svg xmlns="http://www.w3.org/2000/svg" xmlns:xlink="http://www.w3.org/1999/xlink" width="180" height="50.27" viewBox="0 0 180 50.27">
  <defs>
    <linearGradient id="linear-gradient" x1="0.5" y1="1.025" x2="0.5" y2="0.142" gradientUnits="objectBoundingBox">
      <stop offset="0" stop-color="#034693"/>
      <stop offset="1" stop-color="#237ebc"/>
    </linearGradient>
  </defs>
  <g id="Group_2738" data-name="Group 2738" transform="translate(-5549.78 -470.32)">
    <path id="Path_5269" data-name="Path 5269" d="M5630.956,488.734V499h-.007l-8.828-5.136v-5.1l4.119,2.392V485.99Z" transform="translate(-27.218 -5.895)" fill="#fff"/>
    <path id="Path_5270" data-name="Path 5270" d="M5623.449,480.16v5.168l-4.119-2.392-4.71-2.744V470.32l8.829,4.735Z" transform="translate(-24.396)" fill="#fff"/>
    <path id="Path_5271" data-name="Path 5271" d="M5619.322,490.42v5.086l-.012.006-.013-.013-1.846,1.024-2.851,1.538v-5.08l4.69-2.549Z" transform="translate(-24.382 -7.551)" fill="#efa561"/>
    <path id="Path_5272" data-name="Path 5272" d="M5619.3,512.745v5.086l-.019-.013-.716-.383-3.981-2.16V510.07l4.7,2.687Z" transform="translate(-24.375 -14.934)" fill="#fff"/>
    <path id="Path_5273" data-name="Path 5273" d="M5616.483,520.9l-4.709,2.757v-.019l-4.263-2.474-.44-.264,4.7-2.543h.006l3.993,2.16Z" transform="translate(-21.556 -18.039)" fill="#87898c"/>
    <path id="Path_5274" data-name="Path 5274" d="M5611.8,486.05l4.7,2.757-4.7,2.543-.91-.49-3.787-2.053,2.273-1.338Z" transform="translate(-21.567 -5.907)" fill="#e76f21"/>
    <path id="Path_5275" data-name="Path 5275" d="M5606.543,501.107l-4.15,2.292,4.132,2.361-4.709,2.688v-.031l-6.386-3.429-2.449-1.325,8.847-5.143,1.024.553Z" transform="translate(-16.074 -10.6)" fill="#005880"/>
    <path id="Path_5276" data-name="Path 5276" d="M5612.108,505.764v-.006l-.006.006h0l-4.131-2.361,4.15-2.292,2.863-1.57,1.859-1.011h.013l8.829,5.136-8.848,4.785-4.716-2.688v.013l-.012-.006Z" transform="translate(-21.908 -10.604)" fill="#c5c7c8"/>
    <path id="Path_5277" data-name="Path 5277" d="M5609.326,525.17v10.254l-8.835-5.136v-5.1l4.119,2.392v-5.155l.012-.006.44.258,4.257,2.5Z" transform="translate(-19.08 -19.632)" fill="#fff"/>
    <path id="Path_5278" data-name="Path 5278" d="M5611.766,510.07v5.205h-.007l-4.7,2.543h-.006v-5.067l.019.013Z" transform="translate(-21.542 -14.934)" fill="#efa561"/>
    <path id="Path_5279" data-name="Path 5279" d="M5614.557,510.04v.006h-.007Z" transform="translate(-24.356 -14.901)" fill="#c5c7c8"/>
    <path id="Path_5280" data-name="Path 5280" d="M5604.052,540.083l-8.854,4.8-4.7-2.688-4.145-2.374,4.145-2.292,2.8-1.545,1.915-1.042Z" transform="translate(-13.607 -24.29)" fill="#dbdcdd"/>
    <path id="Path_5281" data-name="Path 5281" d="M5607.07,495.51v-5.08h0l.02.006h-.013l3.8,2.053.911.49v5.086l-3.693-2-1.017-.559Z" transform="translate(-21.55 -7.555)" fill="#fff"/>
    <path id="Path_5282" data-name="Path 5282" d="M5607.07,490.42v.006h0Z" transform="translate(-21.316 -7.54)" fill="#87898c"/>
    <path id="Path_5283" data-name="Path 5283" d="M5607.063,522.41v.006l-.013.006v-.013h.013Z" transform="translate(-21.309 -19.541)" fill="#58595b"/>
    <path id="Path_5284" data-name="Path 5284" d="M5609.36,480.191l-2.423,1.425-2.292,1.331v0l-.006.006v-5.212l-4.088,2.374v-5.061l8.829-4.735v9.871l-.013.006Z" transform="translate(-19.102)" fill="#87898c"/>
    <path id="Path_5285" data-name="Path 5285" d="M5601.815,516.592v5.155l-4.119-2.392-4.716-2.744V506.74l2.449,1.306,6.386,3.466v5.08Z" transform="translate(-16.074 -13.71)" fill="#0080be"/>
    <path id="Path_5286" data-name="Path 5286" d="M5597.737,484.514l4.088-2.374v10.273l-8.835,5.136V487.314l4.7-2.763.026.019v-.044Z" transform="translate(-16.077 -4.398)" fill="#3c90ca"/>
    <path id="Path_5287" data-name="Path 5287" d="M5597.726,476.324v5.036l-.038.025-.453-.251-4.226-2.292V473.63Z" transform="translate(-16.085 -1.232)" fill="#fff"/>
    <path id="Path_5288" data-name="Path 5288" d="M5597.686,526.84v5.086h-.013l-.013-.006-1.9,1.049-2.788,1.513V529.4l3.152-1.714,1.539-.829v-.006Z" transform="translate(-16.07 -21.276)" fill="#e76f21"/>
    <path id="Path_5289" data-name="Path 5289" d="M5599.529,526.866l-1.538.829,1.538-.835Z" transform="translate(-17.939 -21.213)" fill="#e87c20"/>
    <path id="Path_5290" data-name="Path 5290" d="M5594.866,525.227l-1.538.835-3.165,1.708-1.362-.728-3.341-1.815,2.449-1.438,2.261-1.319Z" transform="translate(-13.276 -19.582)" fill="#00416b"/>
    <path id="Path_5291" data-name="Path 5291" d="M5590.208,487.2v.038l-.007.006v-.019l-3.284-1.915-1.407-.829,3.787-2.053.9-.49,4.245,2.286.452.251Z" transform="translate(-13.294 -4.324)" fill="#e76f21"/>
    <path id="Path_5292" data-name="Path 5292" d="M5587.743,499l-8.823-5.136v-5.1l4.119,2.392v-5.155l.006-.006,1.419.823,3.284,1.934V499Z" transform="translate(-10.843 -5.899)" fill="#88b2d9"/>
    <path id="Path_5293" data-name="Path 5293" d="M5584.913,537.527l-4.145,2.292,4.145,2.374-4.709,2.688-8.854-4.8,8.848-5.143,1.086.59Z" transform="translate(-8.025 -24.29)" fill="#c5c7c8"/>
    <path id="Path_5294" data-name="Path 5294" d="M5585.487,481.385l.012.006-.012.006-.007-.006v-5.074l4.716-2.688v5.212l-.006.006-.9.49Z" transform="translate(-13.283 -1.232)" fill="#6d6e70"/>
    <path id="Path_5295" data-name="Path 5295" d="M5585.487,486l-.007.006v-.013Z" transform="translate(-13.283 -5.83)" fill="#fff"/>
    <path id="Path_5296" data-name="Path 5296" d="M5580.245,480.172v5.155l-4.119-2.392-4.716-2.744V470.32l8.835,4.735v5.118Z" transform="translate(-8.048)" fill="#fff"/>
    <path id="Path_5297" data-name="Path 5297" d="M5585.44,531.93v-5.08l.013.006-.013.006,3.354,1.808,1.362.735v5.08l-3.629-1.965-1.08-.6Z" transform="translate(-13.268 -21.28)" fill="#fff"/>
    <path id="Path_5298" data-name="Path 5298" d="M5583.015,519.368l-.006.006v-5.212l-4.088,2.374V511.5l4.464-2.424,4.364-2.336v9.871l-.013.006-.006-.006-2.254,1.325Z" transform="translate(-10.843 -13.7)" fill="#005880"/>
    <path id="Path_5299" data-name="Path 5299" d="M5576.107,520.934l4.088-2.374v10.267l-8.835,5.136V523.728l.013.006,4.7-2.769.025.013v-.038Z" transform="translate(-8.029 -18.196)" fill="gray"/>
    <path id="Path_5300" data-name="Path 5300" d="M5578.917,514.32v5.036l-.006.006V514.32Z" transform="translate(-10.839 -16.521)" fill="#fff"/>
    <path id="Path_5301" data-name="Path 5301" d="M5576.116,512.749v5.036l-.038.019-.446-.245-4.232-2.292V510.08l4.685,2.681Z" transform="translate(-8.044 -14.938)" fill="#fff"/>
    <path id="Path_5302" data-name="Path 5302" d="M5576.113,490.42v5.086l-.007.006-.019-.013-1.847,1.024-2.851,1.538v-5.08l4.691-2.549Z" transform="translate(-8.041 -7.551)" fill="#3c90ca"/>
    <path id="Path_5303" data-name="Path 5303" d="M5573.284,520.88v.006l-4.7,2.732v.031l-4.69-2.757,3.341-1.808,1.362-.735,4.244,2.286Z" transform="translate(-5.251 -18.035)" fill="#87898c"/>
    <path id="Path_5304" data-name="Path 5304" d="M5568.6,486.05l4.69,2.757-4.7,2.543-.9-.49-3.793-2.053,2.272-1.338Z" transform="translate(-5.251 -5.907)" fill="#bc5c1a"/>
    <path id="Path_5305" data-name="Path 5305" d="M5568.921,505.757l-.02.006-4.131-2.361,4.145-2.292,2.863-1.57,1.864-1.011h.014l8.821,5.136-4.357,2.355-4.464,2.4v.025h-.007l-4.716-2.687v.025l-.013-.006Z" transform="translate(-5.578 -10.604)" fill="#0080be"/>
    <path id="Path_5306" data-name="Path 5306" d="M5568.58,510.07h.006v5.193l-1.362.741-3.347,1.8.006.006-.013.006v-5.061l.006.006Z" transform="translate(-5.243 -14.934)" fill="#bc5c1a"/>
    <path id="Path_5307" data-name="Path 5307" d="M5563.859,495.51v-5.08h.007l.012.006h-.006l3.8,2.053.9.49.007.006v5.08l-3.692-2-1.018-.559Z" transform="translate(-5.238 -7.555)" fill="#fff"/>
    <path id="Path_5308" data-name="Path 5308" d="M5558.627,508.441v.019l-8.848-4.8,8.841-5.143,1.03.553,3.686,2.034-4.144,2.292,4.132,2.361Z" transform="translate(0 -10.6)" fill="#c5c7c8"/>
    <path id="Path_5309" data-name="Path 5309" d="M5563.859,490.42l.007.006h-.007Z" transform="translate(-5.238 -7.54)" fill="#9b9da0"/>
    <path id="Path_5310" data-name="Path 5310" d="M5566.15,480.191l-2.424,1.425-2.286,1.331-.006-.006v.006l-.005.006v-5.212l-4.089,2.374v-5.061l8.835-4.735v9.871l-.012.006Z" transform="translate(-2.813)" fill="#9b9da0"/>
    <path id="Path_5311" data-name="Path 5311" d="M5558.615,487.352v5.061l-8.835,5.136V487.276l4.748-2.763,4.087-2.374Z" transform="translate(0 -4.398)" fill="gray"/>
    <path id="Path_5312" data-name="Path 5312" d="M564.608,93.766v2.185c.628-1.752,2-2.512,4.753-2.581v2.65h-.546c-2.757,0-4.138,1.325-4.138,4.044v9.915a3.467,3.467,0,0,0,.144,1.061H560.84a3.767,3.767,0,0,0,.138-1.061V94.8a3.493,3.493,0,0,0-.138-1.061Z" transform="translate(5115.382 388.548)" fill="#0b0204"/>
    <path id="Path_5313" data-name="Path 5313" d="M580.247,93.985a3.6,3.6,0,0,0-.151,1.061V110.2a3.576,3.576,0,0,0,.151,1.061H576.26a3.464,3.464,0,0,0,.138-1.061V95.021a3.491,3.491,0,0,0-.138-1.061Z" transform="translate(5109.604 388.327)" fill="#0b0204"/>
    <path id="Path_5314" data-name="Path 5314" d="M618.084,98.643c-3.309-1.168-3.994-1.658-3.994-2.989,0-1.52,1.451-2.644,3.447-2.644a8.216,8.216,0,0,1,4.71,1.658l.628-2.16a15.7,15.7,0,0,0-5.7-1.124c-3.918,0-6.675,2.091-6.675,5.105,0,2.254,1.375,3.717,4.64,4.866,3.849,1.4,4.609,1.959,4.609,3.422,0,1.7-1.52,2.882-3.623,2.882a7.516,7.516,0,0,1-5.231-1.884c-.628.873-1.08,1.256-1.438,1.256-.722,0-1.049-.389-1.049-1.35V95.359c0-2.512-2.217-3.975-6.1-3.975a14.763,14.763,0,0,0-6.568,1.419l.578,2.223c2.041-1.419,3.14-1.821,4.942-1.821,2.028,0,3.441,1,3.441,2.512,0,1.256-.691,1.884-2.474,2.392-4.27,1.162-4.7,1.325-6.085,2.129a4.7,4.7,0,0,0-2.323,4.207,5.331,5.331,0,0,0,.4,2.122c-.27.151-.484.289-.628.358h0a3.454,3.454,0,0,1-1.7.509c-.936,0-1.407-.509-1.407-1.526V93.368h3.045V91.8h-3.045V89.356c0-.226,0-.327.069-1.256l-3.768.4V91.8H584V93.4h2.794V106c0,2.323,1.13,3.385,3.63,3.385a7.982,7.982,0,0,0,3-.628h0a14,14,0,0,0,1.777-.816,5.231,5.231,0,0,0,3.768,1.388,7.145,7.145,0,0,0,5.877-2.625c.471,1.928,1.306,2.625,3.14,2.625a6.6,6.6,0,0,0,3.221-.923,12.194,12.194,0,0,0,4.823.98c4.471,0,7.29-2.16,7.29-5.57C623.333,101.33,622,100,618.084,98.643Zm-13.362,4.609a4,4,0,0,1-4.2,3.881,2.907,2.907,0,0,1-3.089-3.058c0-1.821,1.093-3.045,3.447-3.837,1.017-.4,2-.735,3.008-1.061.289-.163.546-.3.835-.433Z" transform="translate(5106.465 390.526)" fill="#0b0204"/>
    <path id="Path_5315" data-name="Path 5315" d="M460.766,88.4A1.771,1.771,0,1,1,459,86.789,1.7,1.7,0,0,1,460.766,88.4Z" transform="translate(5154.375 391.085)" fill="#f26f21"/>
    <path id="Path_5316" data-name="Path 5316" d="M580.226,88.4a1.771,1.771,0,1,1-1.764-1.614A1.7,1.7,0,0,1,580.226,88.4Z" transform="translate(5109.444 391.085)" fill="#0082c9"/>
    <path id="Path_5317" data-name="Path 5317" d="M478.211,96.887c0-3.14-2.323-4.973-6.2-4.973-2.9,0-4.716.929-5.946,3.14V92.246h-2.1a5.4,5.4,0,0,1,.107,1.024v14.693a4.721,4.721,0,0,1-.107,1.024h2.21a6.041,6.041,0,0,1-.107-1.024V98.375a5.168,5.168,0,0,1,1.488-3.768,5.386,5.386,0,0,1,4.056-1.331c2.907,0,4.609,1.363,4.609,3.648v11.014a2.948,2.948,0,0,1-.107,1.024h2.21a6.034,6.034,0,0,1-.107-1.024Zm-17.77-4.64h-2.21a5.978,5.978,0,0,1,.107,1.024v14.693a6.041,6.041,0,0,1-.107,1.024h2.21a5.454,5.454,0,0,1-.107-1.024V93.27A5.4,5.4,0,0,1,460.44,92.246Zm53.3,15.648a31.824,31.824,0,0,0-7.253,1.061l3.592-2.091c1.017-.527,1.2-.565,3.19-.666,4.64-.226,7.4-2.983,7.4-7.322a6.476,6.476,0,0,0-4.458-6.6,4.685,4.685,0,0,0,3.642-4.358L517.2,88.3c-.075,2.072-1.212,3.416-2.411,3.648h-1.852c-5.023,0-8.012,2.75-8.012,7.359,0,3.215,1.256,5.023,4.4,6.468l-4.4,2.951.684,1.494a27.63,27.63,0,0,1,7.184-1.1c3.881,0,6.2.835,6.2,2.191,0,1.526-2.286,2.512-5.733,2.512a27.332,27.332,0,0,1-7.943-1.162v.628a28.967,28.967,0,0,0,9.03,1.52c4.358,0,7-1.287,7-3.378s-2.939-3.535-7.617-3.535Zm-6.6-8.753c0-3.881,2.1-6.166,5.651-6.166s5.651,2.254,5.651,6.166-2.066,6.066-5.8,6.066c-3.5,0-5.5-2.166-5.5-6.066Zm-11.183-7.209a7.837,7.837,0,0,0-5.651,2.191,7.365,7.365,0,0,0-1.884,2.951,1.781,1.781,0,0,0-.088.257,11.471,11.471,0,0,0-.452,3.385,9.067,9.067,0,0,0,1.576,5.526,5.7,5.7,0,0,1-3.535,1.752c-.98,0-1.375-.477-1.488-1.645V93.226h3.2v-.961h-3.171V88.121l-1.99.232v3.912h-3.14v.961h3.14v12.9a4.025,4.025,0,0,0,.477,2.173,2.047,2.047,0,0,0,1.388.917,4.558,4.558,0,0,0,1.011.1,7.334,7.334,0,0,0,5.023-2.072,9.352,9.352,0,0,0,6.436,2.06,12.476,12.476,0,0,0,5.946-1.394l-.509-1.488a8.47,8.47,0,0,1-5.325,1.821c-2.581,0-4.352-.754-5.488-2.386a6.526,6.526,0,0,1-.728-1.363,10.826,10.826,0,0,1-.383-1.155,11.428,11.428,0,0,1-.358-3.768h13.7C503.3,94.752,500.414,91.932,495.956,91.932Zm-5.846,6.713v-.17a7.4,7.4,0,0,1,1.011-2.863,5.651,5.651,0,0,1,4.86-2.688c3.14,0,5.074,2.06,5.507,5.8H490.11A.373.373,0,0,1,490.11,98.645Z" transform="translate(5153.796 390.577)" fill="url(#linear-gradient)"/>
    <path id="Path_5318" data-name="Path 5318" d="M472.59,139.84l.05-.364h.885l.182-1.212.8-.094a.96.96,0,0,0-.088.314l-.157.992h.967l-.069.364H474.2l-.628,4.1v.214a.345.345,0,0,0,.383.339,1.255,1.255,0,0,0,.534-.17l-.082.446a2.575,2.575,0,0,1-.86.195.628.628,0,0,1-.722-.691c0-.069,0-.144,0-.214l.672-4.22Z" transform="translate(5148.601 371.72)" fill="#0b0204"/>
    <path id="Path_5319" data-name="Path 5319" d="M477.57,140.582a3.893,3.893,0,0,1,.81-.327,3.668,3.668,0,0,1,1.061-.176,1.991,1.991,0,0,1,1.181.345.7.7,0,0,1,.276.628,2.525,2.525,0,0,1-.031.358l-.49,3.077a1.513,1.513,0,0,0,0,.327c0,.226.113.37.27.37a.835.835,0,0,0,.408-.195l-.063.458a1.256,1.256,0,0,1-.728.276.716.716,0,0,1-.672-.684.678.678,0,0,1,.082-.3,3.549,3.549,0,0,1-.408.383,2.606,2.606,0,0,1-1.57.628,1.212,1.212,0,0,1-1.256-1.256c0-.992.678-1.721,1.884-2.034l.98-.257c.628-.17.885-.44.885-1.024,0-.364-.421-.659-.923-.659a2.844,2.844,0,0,0-.942.226,3.278,3.278,0,0,0-.659.414Zm2.449,1.639c-.163.088-.264.151-.345.188l-.5.157a5.275,5.275,0,0,0-1.633.779.829.829,0,0,0-.239.333,1.526,1.526,0,0,0-.138.59.854.854,0,0,0,.885.942,1.884,1.884,0,0,0,1.752-1.614Z" transform="translate(5147.148 371.01)" fill="#0b0204"/>
    <path id="Path_5320" data-name="Path 5320" d="M484.68,144.511a.628.628,0,0,0,.088-.283l1.074-6.813a1.263,1.263,0,0,0,0-.207.441.441,0,0,0,0-.088h.8a1.033,1.033,0,0,0-.075.3l-.628,3.862,2.229-1.884a1.885,1.885,0,0,0,.3-.283h.628l-.1.056c-.063.044-.151.119-.276.226l-2.135,1.815,2.33,3.045c.132.157.17.195.251.283h-1.049c0-.107,0-.113-.157-.283l-2.041-2.637-.433,2.637a1.523,1.523,0,0,0,0,.195.45.45,0,0,0,0,.088Z" transform="translate(5144.049 372.111)" fill="#0b0204"/>
    <path id="Path_5321" data-name="Path 5321" d="M492.06,144.853a.627.627,0,0,0,.088-.283l.766-4.848v-.188a1,1,0,0,0,0-.107h.816a.828.828,0,0,0-.088.3l-.766,4.848a1.808,1.808,0,0,0,0,.195.227.227,0,0,0,0,.088Zm.911-6.417c.031-.257.239-.4.59-.4s.427.119.427.345-.226.433-.628.433c-.276,0-.414-.119-.414-.345Z" transform="translate(5141.281 371.768)" fill="#0b0204"/>
    <path id="Path_5322" data-name="Path 5322" d="M495.47,145.611a.678.678,0,0,0,.088-.283l.766-4.86a.933.933,0,0,0,0-.2.384.384,0,0,0,0-.082h.766l-.138.867a1.187,1.187,0,0,1,.283-.345,2.2,2.2,0,0,1,1.626-.628c.936,0,1.526.5,1.526,1.306a1.7,1.7,0,0,1,0,.239l-.584,3.7a.665.665,0,0,0,0,.157.5.5,0,0,0,0,.126h-.81a.228.228,0,0,1,.031-.056,1.406,1.406,0,0,1,.05-.226l.559-3.548v-.245c0-.628-.4-.917-1.143-.917a1.739,1.739,0,0,0-1.689,1.407l-.521,3.3a1.252,1.252,0,0,0,0,.188.476.476,0,0,0,0,.094Z" transform="translate(5139.989 371.01)" fill="#0b0204"/>
    <path id="Path_5323" data-name="Path 5323" d="M504.536,146.475a2.253,2.253,0,0,0,.314.176,2.612,2.612,0,0,0,1.137.27,1.727,1.727,0,0,0,1.884-1.664l.094-.628a2.449,2.449,0,0,1-.684.672,2.192,2.192,0,0,1-1.2.4,1.7,1.7,0,0,1-1.645-1.915,5.65,5.65,0,0,1,.578-2.4,2.386,2.386,0,0,1,2.148-1.319,1.96,1.96,0,0,1,1.061.283,1.463,1.463,0,0,1,.465.49l.32-.666h.427v.057a1.9,1.9,0,0,0-.057.226l-.779,4.86a2.342,2.342,0,0,1-.8,1.564,2.844,2.844,0,0,1-1.959.578,4.229,4.229,0,0,1-.873-.075,2.957,2.957,0,0,1-.829-.314Zm3.56-2.838.157-.816a6.913,6.913,0,0,0,.138-1.155,1.18,1.18,0,0,0-1.218-1.187,1.727,1.727,0,0,0-1.582,1.287,6.38,6.38,0,0,0-.383,1.978c0,.892.421,1.444,1.13,1.444A2.022,2.022,0,0,0,508.1,143.636Z" transform="translate(5136.727 371.013)" fill="#0b0204"/>
    <path id="Path_5324" data-name="Path 5324" d="M522.369,140.974a1.621,1.621,0,0,0-1.256-.521c-1.212,0-2.173,1.388-2.173,3.14,0,1.13.452,1.739,1.3,1.739a2.027,2.027,0,0,0,.879-.207,2.152,2.152,0,0,0,.628-.433l-.1.628a3.687,3.687,0,0,1-.559.257,3.886,3.886,0,0,1-1.074.163,1.77,1.77,0,0,1-1.884-2.022,4.646,4.646,0,0,1,.628-2.267,2.731,2.731,0,0,1,2.468-1.363,2.939,2.939,0,0,1,1.256.245Z" transform="translate(5131.468 371.007)" fill="#0b0204"/>
    <path id="Path_5325" data-name="Path 5325" d="M525.841,140.582a3.854,3.854,0,0,1,.8-.327,3.7,3.7,0,0,1,1.061-.176,1.965,1.965,0,0,1,1.18.345.7.7,0,0,1,.276.628,2.5,2.5,0,0,1,0,.358l-.49,3.077a1.984,1.984,0,0,0,0,.327c0,.226.107.37.264.37a.829.829,0,0,0,.414-.195l-.069.458a1.256,1.256,0,0,1-.728.276.716.716,0,0,1-.672-.684.778.778,0,0,1,.082-.3,4.192,4.192,0,0,1-.4.383,2.637,2.637,0,0,1-1.576.628,1.218,1.218,0,0,1-1.256-1.256c0-.992.678-1.721,1.884-2.035l.979-.257c.628-.17.885-.44.885-1.024,0-.364-.421-.659-.923-.659a2.845,2.845,0,0,0-.942.226,3.276,3.276,0,0,0-.628.414Zm2.449,1.639-.345.188-.5.157a5.273,5.273,0,0,0-1.633.779.891.891,0,0,0-.239.333,1.651,1.651,0,0,0-.138.59.854.854,0,0,0,.885.942,1.884,1.884,0,0,0,1.752-1.614Z" transform="translate(5128.985 371.01)" fill="#0b0204"/>
    <path id="Path_5326" data-name="Path 5326" d="M532.93,145.617c.063-.088.063-.107.088-.283l.766-4.86a1.277,1.277,0,0,0,0-.182.26.26,0,0,0,0-.1h.76l-.151.835a1.494,1.494,0,0,1,1.557-.923l-.113.628a.778.778,0,0,0-.157,0,1.432,1.432,0,0,0-1.432,1.3l-.521,3.3a1.26,1.26,0,0,0,0,.188.476.476,0,0,0,0,.094Z" transform="translate(5125.906 371.004)" fill="#0b0204"/>
    <path id="Path_5327" data-name="Path 5327" d="M538.171,142.617a3.974,3.974,0,0,0-.107.867c0,1.224.521,1.846,1.551,1.846a2.894,2.894,0,0,0,1.111-.213,2.634,2.634,0,0,0,.628-.4l.069.553a2.826,2.826,0,0,1-.672.283,4.616,4.616,0,0,1-1.287.176,1.973,1.973,0,0,1-2.2-2.091c0-2.06,1.256-3.56,2.951-3.56a1.835,1.835,0,0,1,1.928,2.072,2.155,2.155,0,0,1-.038.465Zm.082-.333h3.14v-.27c0-1-.458-1.551-1.256-1.551A2.163,2.163,0,0,0,538.252,142.284Z" transform="translate(5124.27 371.009)" fill="#0b0204"/>
    <path id="Path_5328" data-name="Path 5328" d="M550.54,143.538c0-1.984,1.256-3.46,2.958-3.46a1.959,1.959,0,0,1,2.053,2.173c0,1.965-1.256,3.46-2.97,3.46a1.934,1.934,0,0,1-2.034-1.84C550.54,143.752,550.54,143.645,550.54,143.538Zm.835.628a1.256,1.256,0,0,0,1.256,1.193,1.884,1.884,0,0,0,1.651-1.193,4.78,4.78,0,0,0,.452-2c0-1.149-.465-1.783-1.319-1.783a1.884,1.884,0,0,0-1.639,1.193,4.834,4.834,0,0,0-.465,2.016,2.514,2.514,0,0,0,.063.6Z" transform="translate(5119.274 371.011)" fill="#0b0204"/>
    <path id="Path_5329" data-name="Path 5329" d="M559.46,144.436c.063-.088.063-.107.088-.283l.76-4.766h-.628l.044-.377h.628l.132-.835c.125-.848.753-1.256,1.84-1.256a3.07,3.07,0,0,1,1.1.176l-.264.509a1.576,1.576,0,0,0-.936-.245.886.886,0,0,0-1,.86l-.126.8h1.758l-.057.377h-1.739l-.76,4.766v.188a.247.247,0,0,0,0,.094Z" transform="translate(5115.923 372.186)" fill="#0b0204"/>
    <path id="Path_5330" data-name="Path 5330" d="M567.84,144.511a.229.229,0,0,1,.05-.057.6.6,0,0,1,.038-.226l1.086-6.813v-.188a.724.724,0,0,0,0-.107h.81a.809.809,0,0,0-.082.3l-.421,2.625a2.338,2.338,0,0,1,.628-.628,2.362,2.362,0,0,1,1.287-.446c1.011,0,1.62.747,1.62,1.947a5.376,5.376,0,0,1-.578,2.342,2.4,2.4,0,0,1-2.135,1.337A2.022,2.022,0,0,1,569,144.26a1.847,1.847,0,0,1-.4-.4l-.32.628Zm1.2-2.713-.157,1.218a1.212,1.212,0,0,0,1.218,1.193,1.689,1.689,0,0,0,1.545-1.193,5.649,5.649,0,0,0,.427-2.06c0-.91-.427-1.438-1.143-1.438a1.915,1.915,0,0,0-1.488.885,2.763,2.763,0,0,0-.4,1.394Z" transform="translate(5112.766 372.111)" fill="#0b0204"/>
    <path id="Path_5331" data-name="Path 5331" d="M580.575,144.81a1.687,1.687,0,0,1-.333.421,2.587,2.587,0,0,1-1.6.59,1.4,1.4,0,0,1-1.5-1.256,4.547,4.547,0,0,1,.05-.534l.553-3.447a1.1,1.1,0,0,0,0-.22.389.389,0,0,0,0-.075h.8a1,1,0,0,0-.088.283l-.5,3.265a4.472,4.472,0,0,0-.069.571h0a.992.992,0,0,0,1.08.854,1.884,1.884,0,0,0,1.174-.452,1.783,1.783,0,0,0,.6-1.168l.5-3.089v-.283h.841a.7.7,0,0,0-.082.3l-.766,4.835v.188a.245.245,0,0,0,0,.094h-.76Z" transform="translate(5109.269 370.939)" fill="#0b0204"/>
    <path id="Path_5332" data-name="Path 5332" d="M585.285,144.645a1.727,1.727,0,0,0,.628.458,1.959,1.959,0,0,0,.823.2,1.3,1.3,0,0,0,1.369-1.256c0-.408-.239-.628-1.143-1.011a1.99,1.99,0,0,1-.979-.628,1.13,1.13,0,0,1-.207-.666,1.877,1.877,0,0,1,2.066-1.714,3.058,3.058,0,0,1,1.482.377l-.232.54a1.946,1.946,0,0,0-.5-.345,1.721,1.721,0,0,0-.747-.17,1.193,1.193,0,0,0-1.256,1.093c0,.4.176.565.973.9a4.7,4.7,0,0,1,.709.364,1.042,1.042,0,0,1,.628.961,2.051,2.051,0,0,1-2.248,1.947,3.139,3.139,0,0,1-.948-.144,2.51,2.51,0,0,1-.659-.327Z" transform="translate(5106.3 371.028)" fill="#0b0204"/>
    <path id="Path_5333" data-name="Path 5333" d="M592.4,144.853a.629.629,0,0,0,.088-.283l.766-4.848a1.244,1.244,0,0,0,0-.188.377.377,0,0,0,0-.107h.816a.98.98,0,0,0-.088.3l-.766,4.848a1.479,1.479,0,0,0,0,.195.432.432,0,0,0,0,.088Zm.917-6.417c0-.257.232-.4.59-.4s.421.119.421.345-.226.433-.628.433c-.27,0-.408-.119-.408-.345Z" transform="translate(5103.339 371.768)" fill="#0b0204"/>
    <path id="Path_5334" data-name="Path 5334" d="M595.81,145.611a.629.629,0,0,0,.088-.283l.772-4.86a.922.922,0,0,0,0-.2.2.2,0,0,0,0-.082h.766l-.138.867a1.3,1.3,0,0,1,.289-.345,2.2,2.2,0,0,1,1.62-.628c.936,0,1.526.5,1.526,1.306v.239l-.59,3.7a.669.669,0,0,0,0,.157.5.5,0,0,0,0,.126h-.823l.031-.057a.471.471,0,0,1,.05-.226l.559-3.548a1.822,1.822,0,0,0,0-.245c0-.628-.4-.917-1.136-.917a1.746,1.746,0,0,0-1.7,1.407l-.521,3.3v.188a.244.244,0,0,0,0,.094Z" transform="translate(5102.071 371.01)" fill="#0b0204"/>
    <path id="Path_5335" data-name="Path 5335" d="M605.963,142.617a3.981,3.981,0,0,0-.107.867c0,1.224.521,1.846,1.551,1.846a2.92,2.92,0,0,0,1.112-.213,2.508,2.508,0,0,0,.628-.4l.069.553a2.906,2.906,0,0,1-.666.283,4.647,4.647,0,0,1-1.256.176,1.973,1.973,0,0,1-2.2-2.091c0-2.06,1.256-3.56,2.951-3.56a1.838,1.838,0,0,1,1.928,2.072,3.572,3.572,0,0,1-.044.465Zm.075-.333h3.14v-.27c0-1-.458-1.551-1.256-1.551A2.169,2.169,0,0,0,606.038,142.284Z" transform="translate(5098.618 371.009)" fill="#0b0204"/>
    <path id="Path_5336" data-name="Path 5336" d="M613.133,144.645a1.728,1.728,0,0,0,.628.458,1.96,1.96,0,0,0,.822.2,1.3,1.3,0,0,0,1.369-1.256c0-.408-.239-.628-1.143-1.011a1.99,1.99,0,0,1-.98-.628,1.13,1.13,0,0,1-.207-.666,1.877,1.877,0,0,1,2.066-1.714,3.058,3.058,0,0,1,1.482.377l-.232.54a1.945,1.945,0,0,0-.5-.345,1.7,1.7,0,0,0-.747-.17,1.193,1.193,0,0,0-1.256,1.093c0,.4.176.565.973.9a4.7,4.7,0,0,1,.71.364,1.042,1.042,0,0,1,.628.961,2.051,2.051,0,0,1-2.248,1.947,3.138,3.138,0,0,1-.948-.144,2.51,2.51,0,0,1-.628-.327Z" transform="translate(5095.704 371.028)" fill="#0b0204"/>
    <path id="Path_5337" data-name="Path 5337" d="M619.855,144.645a1.727,1.727,0,0,0,.628.458,1.991,1.991,0,0,0,.829.2,1.3,1.3,0,0,0,1.363-1.256c0-.408-.232-.628-1.137-1.011a2.053,2.053,0,0,1-.986-.628,1.131,1.131,0,0,1-.207-.666,1.88,1.88,0,0,1,2.066-1.714,3.059,3.059,0,0,1,1.482.377l-.232.54a1.95,1.95,0,0,0-.5-.345,1.7,1.7,0,0,0-.747-.17,1.193,1.193,0,0,0-1.256,1.093c0,.4.182.565.973.9a4.4,4.4,0,0,1,.71.364,1.022,1.022,0,0,1,.628.961,2.053,2.053,0,0,1-2.254,1.947,3.139,3.139,0,0,1-.943-.145,2.429,2.429,0,0,1-.659-.326Z" transform="translate(5093.215 371.028)" fill="#0b0204"/>
  </g>
</svg>
