<svg xmlns="http://www.w3.org/2000/svg" width="263.677" height="81.629" viewBox="0 0 263.677 81.629">
  <g id="Group_820" data-name="Group 820" transform="translate(-367.209 -144.705)">
    <path id="Path_2021" data-name="Path 2021" d="M395.458,218.038l-2.373,8.028h-5.877c-8.924,0-13.784-4.523-13.784-13.675V173.072h-6.215V165.05h6.325V152.4l9.269-2.715V165.05h9.6v8.022h-9.721v37.057c0,5.424,2.715,7.909,8.481,7.909Z" fill="#ff5400"/>
    <path id="Path_2022" data-name="Path 2022" d="M439.177,226.063H419.521c-15.374,0-24.86-7.679-24.525-22.818.565-22.83,14.807-38.195,36.5-38.195h7.681Zm-34.8-22.818c.115,8.7,5.877,14.8,14.461,14.8h11.187v-45.2C414.316,172.625,404.147,187.654,404.376,203.245Z" fill="#ff5400"/>
    <path id="Path_2023" data-name="Path 2023" d="M490.576,226.066H480.067l-11.98-21.584-1.468-5.877-1.466,5.877-11.977,21.584h-10.51L461.309,194.2,445.042,165.05H455.32l9.942,19.093,1.357,4.974,1.358-4.974,9.947-19.093H488.2L471.933,194.2Z" fill="#ff5400"/>
    <path id="Path_2024" data-name="Path 2024" d="M516.212,218.038l-2.375,8.028h-5.869c-8.93,0-13.786-4.523-13.786-13.675V173.072H483.356l4.611-8.022h6.322V152.4l9.267-2.715V165.05h9.608v8.022h-9.723v37.057c0,5.424,2.718,7.909,8.475,7.909Z" fill="#2665ab"/>
    <path id="Path_2025" data-name="Path 2025" d="M579.007,226.066h-8.919V144.705h8.919Z" fill="#2665ab"/>
    <g id="Group_818" data-name="Group 818">
      <rect id="Rectangle_106" data-name="Rectangle 106" width="8.925" height="81.361" transform="translate(589.166 144.705)" fill="#2665ab"/>
      <path id="Path_2026" data-name="Path 2026" d="M630.886,226.066h-10.85L598.35,192.508l19.314-27.458H628.4l-20.223,27.566Z" fill="#2665ab"/>
    </g>
    <g id="Group_819" data-name="Group 819">
      <path id="Path_2027" data-name="Path 2027" d="M559.934,164.748l-7.685.3c-21.7,0-35.926,15.365-36.494,38.195-.343,15.139,9.154,22.818,24.517,22.818l10.792-.165a21,21,0,0,1-7.353-6.8h-3.288c-9.08,0-15.176-6.449-15.293-15.645-.21-14.818,8.457-27.052,22.27-29.865a4.039,4.039,0,0,1,4.847,3.947v34.18a7.372,7.372,0,0,1-3.455,6.244c-.351,3.682,1.789,6.812,2.677,7.934l8.465-.13Z" fill="#2665ab"/>
      <path id="Path_2028" data-name="Path 2028" d="M551.841,226.334s-.145-.156-.372-.442l-.4.006C551.321,226.044,551.57,226.193,551.841,226.334Z" fill="#fff"/>
    </g>
  </g>
</svg>
